<?xml version="1.0" encoding="UTF-8"?>
<svg id="Layer_1" data-name="Layer 1" xmlns="http://www.w3.org/2000/svg" viewBox="0 0 269.28 361.07">
  <path d="M137.85,116.84v180.2l131.43-70.1V56.08l-131.43,60.75ZM256.23,216.95l-105.34,56.16v-144.42l105.34-48.69v136.94Z"/>
  <path d="M133.87,0L2.4,51.28l131.63,60.88,131.63-60.88L133.87,0ZM41.02,52.68l92.9-36.24,93.11,36.24-93.01,43.01L41.01,52.68h0Z"/>
  <path d="M0,56.08v170.85l131.43,70.1V116.84L0,56.08ZM118.4,273.11L13.07,216.95V80.01l105.32,48.7v144.4Z"/>
  <g>
    <path d="M3.9,360.65v-39.7h13.7c2.6,0,4.82.25,6.66.74,1.84.49,3.35,1.2,4.53,2.11,1.18.92,2.04,2.02,2.59,3.32.55,1.3.82,2.76.82,4.39,0,.94-.14,1.83-.41,2.68-.27.85-.7,1.65-1.28,2.39-.57.74-1.31,1.42-2.19,2.02-.89.6-1.94,1.11-3.17,1.54,5.46,1.22,8.18,4.17,8.18,8.84,0,1.68-.32,3.24-.96,4.67-.64,1.43-1.57,2.66-2.8,3.69-1.22,1.03-2.73,1.85-4.53,2.43-1.79.59-3.84.88-6.15.88H3.9ZM11.29,338.15h5.9c2.51,0,4.41-.46,5.71-1.37,1.3-.92,1.95-2.37,1.95-4.36s-.59-3.54-1.76-4.42c-1.17-.88-3-1.32-5.49-1.32h-6.32v11.47h0ZM11.29,343.25v11.64h7.49c1.37,0,2.52-.16,3.45-.49.92-.33,1.67-.77,2.22-1.32.56-.55.96-1.19,1.21-1.92s.37-1.51.37-2.33-.14-1.63-.41-2.32c-.27-.68-.7-1.27-1.29-1.76-.59-.49-1.33-.85-2.25-1.11-.92-.26-2.02-.38-3.32-.38h-7.47Z"/>
    <path d="M39.29,360.65v-28.17h3.98c.7,0,1.18.13,1.46.38.27.26.46.7.55,1.32l.41,3.4c1-1.74,2.19-3.11,3.54-4.12,1.35-1.01,2.87-1.51,4.56-1.51,1.39,0,2.54.32,3.46.96l-.88,5.08c-.05.33-.17.56-.36.7-.18.14-.43.21-.74.21-.27,0-.65-.06-1.13-.19-.48-.13-1.11-.19-1.89-.19-1.41,0-2.62.39-3.62,1.17-1,.78-1.86,1.91-2.55,3.42v17.54h-6.78Z"/>
    <path d="M69.95,324.28c0,.59-.12,1.13-.36,1.65-.24.51-.55.96-.95,1.35-.4.38-.85.69-1.39.92s-1.1.34-1.7.34-1.14-.12-1.66-.34c-.52-.23-.97-.53-1.36-.92-.38-.38-.69-.83-.92-1.35s-.34-1.06-.34-1.65.12-1.17.34-1.7c.23-.53.53-.99.92-1.37.38-.38.83-.69,1.36-.92.52-.23,1.07-.34,1.66-.34s1.17.12,1.7.34.99.53,1.39.92c.4.38.71.84.95,1.37.24.53.36,1.1.36,1.7ZM68.94,332.49v28.17h-6.78v-28.17h6.78Z"/>
    <path d="M96.39,338.45c-.2.26-.4.46-.59.6-.19.14-.47.22-.83.22s-.68-.1-1.02-.31c-.33-.21-.73-.45-1.18-.71-.46-.27-1-.51-1.63-.71-.63-.21-1.42-.31-2.34-.31-1.19,0-2.24.22-3.13.64-.9.43-1.64,1.05-2.24,1.85-.59.81-1.04,1.78-1.33,2.93-.29,1.14-.44,2.44-.44,3.88s.16,2.84.48,4.01c.32,1.17.78,2.15,1.39,2.95.6.79,1.33,1.4,2.19,1.81.86.41,1.83.62,2.91.62s1.96-.13,2.62-.4c.67-.27,1.23-.56,1.69-.88.46-.32.85-.62,1.2-.88.33-.27.72-.4,1.14-.4.55,0,.96.21,1.24.63l1.95,2.47c-.75.88-1.57,1.61-2.44,2.21-.88.59-1.79,1.07-2.74,1.43-.94.36-1.91.61-2.93.75-1.01.14-2,.22-3,.22-1.74,0-3.38-.33-4.92-.98-1.54-.65-2.88-1.59-4.02-2.84-1.14-1.24-2.05-2.77-2.72-4.57s-1.01-3.86-1.01-6.16c0-2.06.3-3.99.9-5.75.59-1.76,1.47-3.3,2.62-4.59,1.16-1.29,2.58-2.3,4.28-3.04,1.7-.73,3.66-1.1,5.87-1.1s3.95.34,5.53,1.02c1.58.68,3.01,1.65,4.27,2.91l-1.78,2.47h.01Z"/>
    <path d="M109.66,319.86v23.36h1.26c.46,0,.81-.06,1.07-.19.26-.13.53-.37.83-.71l7-8.65c.31-.37.64-.66.99-.86.35-.21.81-.31,1.37-.31h6.21l-8.76,10.46c-.31.38-.63.74-.96,1.06-.33.32-.68.6-1.07.83.38.27.73.59,1.02.96.29.37.59.76.88,1.18l9.39,13.67h-6.12c-.53,0-.98-.09-1.35-.27-.37-.19-.7-.49-.99-.94l-7.17-10.68c-.27-.42-.55-.7-.83-.83-.27-.13-.68-.19-1.24-.19h-1.54v12.9h-6.78v-40.8h6.78Z"/>
    <path d="M159.07,352.72c.27,0,.51.11.72.32l1.9,2.07c-1.47,1.7-3.24,3.02-5.33,3.97-2.09.95-4.61,1.42-7.56,1.42-2.58,0-4.92-.45-7.02-1.34-2.1-.89-3.89-2.14-5.37-3.75-1.48-1.61-2.63-3.53-3.45-5.78-.82-2.25-1.22-4.72-1.22-7.42s.44-5.17,1.31-7.42c.87-2.25,2.1-4.18,3.69-5.8,1.58-1.62,3.48-2.87,5.68-3.76,2.21-.89,4.64-1.34,7.31-1.34s4.9.41,6.81,1.22,3.6,1.92,5.08,3.32l-1.57,2.22c-.12.17-.25.3-.4.41-.15.11-.37.16-.65.16-.22,0-.45-.08-.69-.24-.24-.16-.53-.35-.86-.59-.33-.23-.72-.48-1.17-.75-.45-.27-.98-.52-1.6-.75-.62-.23-1.33-.43-2.15-.59-.82-.16-1.76-.24-2.82-.24-1.91,0-3.67.33-5.26.99-1.59.66-2.96,1.59-4.11,2.81-1.15,1.22-2.04,2.7-2.68,4.45-.64,1.75-.96,3.71-.96,5.87s.32,4.22.96,5.97c.64,1.75,1.51,3.23,2.62,4.43s2.42,2.13,3.93,2.76,3.15.95,4.9.95c1.07,0,2.02-.06,2.87-.19s1.64-.32,2.36-.59c.72-.27,1.4-.6,2.02-1.01s1.25-.89,1.89-1.46c.28-.25.56-.38.82-.38Z"/>
    <path d="M176.82,334.41c1.85,0,3.52.31,5.01.92,1.49.62,2.76,1.49,3.8,2.62,1.04,1.13,1.84,2.5,2.4,4.11s.84,3.4.84,5.38-.28,3.8-.84,5.4-1.36,2.96-2.4,4.1c-1.04,1.13-2.31,2-3.8,2.61-1.49.61-3.16.91-5.01.91s-3.52-.3-5.01-.91c-1.49-.61-2.76-1.48-3.81-2.61-1.05-1.13-1.86-2.5-2.42-4.1s-.85-3.4-.85-5.4.28-3.78.85-5.38,1.37-2.98,2.42-4.11,2.32-2.01,3.81-2.62c1.49-.62,3.16-.92,5.01-.92ZM176.82,357c2.5,0,4.36-.84,5.6-2.51,1.23-1.67,1.85-4.01,1.85-7.01s-.62-5.36-1.85-7.04c-1.23-1.68-3.1-2.52-5.6-2.52-1.27,0-2.36.22-3.3.65-.93.43-1.71,1.06-2.34,1.87s-1.09,1.82-1.4,3.01c-.31,1.19-.46,2.54-.46,4.03s.15,2.84.46,4.02c.31,1.18.77,2.18,1.4,2.99.62.81,1.4,1.43,2.34,1.86.93.43,2.03.65,3.3.65Z"/>
    <path d="M199.12,356.05h15.49v4.07h-20.33v-35.8h4.85v31.72Z"/>
    <path d="M238.62,360.12h-1.97c-.43,0-.78-.07-1.05-.2-.27-.13-.44-.42-.53-.85l-.5-2.35c-.67.6-1.32,1.14-1.95,1.61-.63.47-1.3.87-2,1.2-.7.32-1.45.57-2.24.74-.79.17-1.67.25-2.64.25s-1.9-.14-2.76-.41c-.86-.28-1.6-.69-2.24-1.24-.63-.55-1.14-1.25-1.51-2.09-.38-.84-.56-1.84-.56-3,0-1,.27-1.97.82-2.89.55-.93,1.44-1.75,2.66-2.47,1.22-.72,2.83-1.31,4.81-1.77,1.98-.46,4.4-.69,7.27-.69v-1.99c0-1.98-.42-3.47-1.26-4.49s-2.09-1.52-3.73-1.52c-1.08,0-1.99.14-2.74.41s-1.38.58-1.92.92c-.54.34-1.01.65-1.4.92-.39.27-.78.41-1.16.41-.3,0-.56-.08-.79-.24-.22-.16-.4-.35-.54-.59l-.8-1.42c1.4-1.35,2.91-2.36,4.52-3.02,1.62-.67,3.41-1,5.37-1,1.42,0,2.67.23,3.77.7,1.1.47,2.02,1.12,2.77,1.95.75.83,1.31,1.84,1.7,3.02.38,1.18.57,2.48.57,3.9v16.19ZM227.08,357.4c.78,0,1.5-.08,2.15-.24s1.26-.38,1.84-.67c.57-.29,1.12-.64,1.65-1.06.52-.42,1.04-.89,1.54-1.42v-5.22c-2.05,0-3.79.13-5.22.39-1.43.26-2.6.6-3.5,1.02s-1.55.91-1.96,1.48c-.41.57-.61,1.21-.61,1.91s.11,1.25.32,1.73c.22.49.51.88.87,1.19.37.31.8.54,1.3.68.5.14,1.04.21,1.62.21Z"/>
    <path d="M244.73,360.12v-36.8h4.47v15.14c1.05-1.22,2.25-2.19,3.61-2.93,1.36-.74,2.91-1.11,4.66-1.11,1.47,0,2.79.27,3.97.82,1.18.55,2.19,1.37,3.02,2.46.83,1.09,1.47,2.44,1.92,4.05.45,1.61.67,3.46.67,5.56,0,1.87-.25,3.6-.75,5.21-.5,1.61-1.22,3-2.16,4.17-.94,1.17-2.09,2.1-3.45,2.77-1.36.67-2.89,1.01-4.58,1.01s-3.02-.32-4.16-.95c-1.14-.63-2.14-1.51-2.99-2.65l-.22,2.3c-.13.63-.52.95-1.15.95h-2.87ZM256.02,337.96c-1.45,0-2.72.33-3.81,1-1.09.67-2.09,1.61-3.01,2.82v12.24c.8,1.1,1.69,1.87,2.66,2.32s2.06.67,3.26.67c2.36,0,4.18-.84,5.45-2.52,1.27-1.68,1.9-4.08,1.9-7.19,0-1.65-.15-3.06-.44-4.25-.29-1.18-.71-2.15-1.26-2.91-.55-.76-1.22-1.31-2.02-1.66-.8-.35-1.71-.52-2.72-.52Z"/>
  </g>
</svg>