<?xml version="1.0" encoding="UTF-8"?>
<svg id="Layer_1" xmlns="http://www.w3.org/2000/svg" version="1.1" viewBox="0 0 512 166">
  <!-- Generator: Adobe Illustrator 29.8.5, SVG Export Plug-In . SVG Version: 2.1.1 Build 2)  -->
  <defs>
    <style>
      .st0 {
        fill: #848484;
      }

      .st1 {
        fill: #ff5b00;
      }

      .st2 {
        fill: red;
      }
    </style>
  </defs>
  <path class="st2" d="M78.3,68.35v85.36l62.26-33.2V39.57l-62.26,28.78ZM134.37,115.77l-49.9,26.6v-68.41l49.9-23.06v64.87Z"/>
  <path class="st0" d="M76.41,13L14.14,37.29l62.35,28.84,62.35-28.84-62.43-24.29ZM32.43,37.95l44.01-17.17,44.11,17.17-44.06,20.37-44.06-20.37h0Z"/>
  <path class="st1" d="M13,39.57v80.93l62.26,33.2v-85.36L13,39.57ZM69.08,142.37l-49.89-26.6V50.9l49.89,23.07v68.4Z"/>
  <path class="st2" d="M162.68,106v-50.85h17.55c3.33,0,6.17.32,8.53.95,2.36.63,4.29,1.53,5.81,2.71,1.52,1.17,2.62,2.59,3.32,4.26.7,1.66,1.05,3.54,1.05,5.62,0,1.2-.18,2.34-.53,3.43-.35,1.09-.89,2.11-1.64,3.06-.74.95-1.67,1.81-2.81,2.58-1.14.77-2.49,1.43-4.06,1.97,6.99,1.57,10.48,5.34,10.48,11.32,0,2.15-.41,4.15-1.24,5.98-.82,1.83-2.01,3.41-3.59,4.73-1.57,1.32-3.5,2.36-5.81,3.11-2.29.75-4.92,1.13-7.87,1.13h-19.2ZM172.15,77.17h7.56c3.21,0,5.65-.59,7.31-1.76,1.67-1.17,2.5-3.04,2.5-5.59s-.75-4.54-2.25-5.66c-1.5-1.12-3.85-1.69-7.03-1.69h-8.09v14.7h0ZM172.15,83.71v14.92h9.6c1.76,0,3.23-.21,4.41-.63,1.18-.42,2.14-.98,2.85-1.69.72-.7,1.23-1.52,1.55-2.46s.47-1.94.47-2.99-.18-2.09-.53-2.97c-.35-.88-.9-1.63-1.65-2.25-.75-.62-1.71-1.09-2.88-1.43-1.17-.33-2.59-.49-4.26-.49h-9.57Z"/>
  <path class="st2" d="M208.02,106v-36.08h5.1c.89,0,1.51.17,1.87.49.35.33.59.89.7,1.69l.53,4.36c1.29-2.22,2.8-3.99,4.54-5.27,1.73-1.29,3.68-1.94,5.84-1.94,1.78,0,3.26.41,4.43,1.23l-1.13,6.51c-.07.42-.22.72-.46.89-.24.18-.55.26-.95.26-.35,0-.83-.08-1.45-.25-.61-.17-1.42-.25-2.43-.25-1.8,0-3.35.5-4.64,1.5-1.29,1-2.38,2.45-3.27,4.38v22.47h-8.69Z"/>
  <path class="st2" d="M247.3,59.4c0,.75-.15,1.45-.46,2.11-.31.66-.71,1.23-1.22,1.73-.51.49-1.1.88-1.78,1.18s-1.41.44-2.18.44-1.46-.15-2.13-.44c-.67-.29-1.24-.68-1.74-1.18-.49-.49-.88-1.07-1.17-1.73s-.44-1.36-.44-2.11.15-1.5.44-2.18c.29-.68.68-1.27,1.17-1.76.49-.49,1.07-.88,1.74-1.17.67-.29,1.38-.44,2.13-.44s1.5.15,2.18.44,1.27.68,1.78,1.17c.51.49.91,1.08,1.22,1.76.31.68.46,1.41.46,2.18ZM246.01,69.92v36.09h-8.69v-36.09h8.69Z"/>
  <path class="st2" d="M281.17,77.55c-.25.33-.51.59-.75.77-.24.18-.6.28-1.07.28s-.88-.13-1.3-.4c-.42-.27-.93-.58-1.52-.91-.59-.34-1.29-.65-2.09-.91-.81-.27-1.81-.4-3-.4-1.52,0-2.86.28-4.01.82-1.15.55-2.1,1.34-2.86,2.37-.76,1.03-1.33,2.28-1.71,3.75-.38,1.46-.56,3.13-.56,4.97s.2,3.63.61,5.13c.41,1.5,1,2.76,1.78,3.78.77,1.02,1.71,1.8,2.81,2.32,1.1.53,2.35.79,3.73.79s2.51-.17,3.35-.51c.86-.34,1.58-.72,2.16-1.12.59-.41,1.09-.79,1.53-1.13.43-.34.92-.51,1.46-.51.7,0,1.24.27,1.59.81l2.5,3.16c-.96,1.13-2.01,2.07-3.13,2.83-1.12.76-2.3,1.38-3.5,1.83-1.21.46-2.45.78-3.75.96-1.29.18-2.57.28-3.84.28-2.22,0-4.33-.42-6.3-1.25-1.97-.83-3.69-2.04-5.15-3.64-1.46-1.59-2.63-3.55-3.49-5.86s-1.29-4.94-1.29-7.89c0-2.65.39-5.11,1.15-7.37.76-2.26,1.88-4.22,3.35-5.88,1.48-1.66,3.3-2.95,5.48-3.89,2.18-.94,4.69-1.41,7.52-1.41s5.06.44,7.09,1.31c2.02.87,3.85,2.11,5.46,3.73l-2.29,3.16.02.02Z"/>
  <path class="st2" d="M298.16,53.74v29.93h1.62c.59,0,1.04-.08,1.38-.25.33-.17.68-.47,1.06-.91l8.97-11.08c.4-.47.82-.84,1.27-1.1.45-.26,1.03-.4,1.76-.4h7.95l-11.22,13.4c-.4.49-.81.95-1.23,1.36-.42.41-.88.77-1.38,1.07.49.35.93.76,1.3,1.23.38.47.75.97,1.12,1.52l12.02,17.52h-7.84c-.68,0-1.25-.11-1.73-.35-.47-.24-.89-.63-1.27-1.2l-9.18-13.68c-.35-.54-.7-.89-1.06-1.06-.35-.17-.88-.25-1.58-.25h-1.97v16.53h-8.69v-52.26h8.69Z"/>
  <path class="st1" d="M361.46,95.84c.34,0,.65.14.93.42l2.43,2.66c-1.88,2.18-4.16,3.87-6.83,5.09-2.68,1.22-5.9,1.82-9.68,1.82-3.31,0-6.3-.57-8.99-1.71-2.69-1.14-4.98-2.74-6.88-4.8-1.9-2.06-3.37-4.53-4.42-7.41-1.05-2.88-1.57-6.05-1.57-9.5s.56-6.62,1.68-9.5c1.12-2.88,2.69-5.35,4.72-7.42,2.03-2.07,4.45-3.67,7.28-4.82,2.83-1.14,5.95-1.71,9.36-1.71s6.28.52,8.72,1.57,4.61,2.46,6.51,4.26l-2.02,2.85c-.15.21-.32.39-.51.53-.19.14-.47.21-.83.21-.28,0-.57-.1-.88-.3-.31-.2-.68-.45-1.1-.75-.43-.3-.93-.62-1.5-.96-.58-.34-1.26-.66-2.05-.96-.79-.3-1.71-.55-2.75-.75-1.04-.2-2.25-.3-3.62-.3-2.45,0-4.7.42-6.74,1.26-2.04.84-3.79,2.04-5.26,3.6-1.47,1.56-2.62,3.46-3.44,5.7-.82,2.24-1.23,4.75-1.23,7.52s.41,5.41,1.23,7.65c.82,2.24,1.94,4.13,3.36,5.68s3.1,2.73,5.04,3.54,4.03,1.22,6.27,1.22c1.37,0,2.59-.08,3.68-.24s2.1-.41,3.02-.75c.93-.34,1.79-.77,2.59-1.3s1.61-1.15,2.42-1.87c.36-.32.71-.48,1.06-.48Z"/>
  <path class="st1" d="M384.2,72.38c2.37,0,4.51.4,6.42,1.18,1.91.79,3.53,1.91,4.86,3.36,1.33,1.45,2.36,3.21,3.07,5.26s1.07,4.36,1.07,6.9-.36,4.86-1.07,6.91-1.74,3.8-3.07,5.25c-1.33,1.45-2.96,2.57-4.86,3.34-1.91.78-4.05,1.17-6.42,1.17s-4.51-.39-6.42-1.17c-1.91-.78-3.54-1.89-4.88-3.34-1.34-1.45-2.38-3.2-3.1-5.25s-1.09-4.35-1.09-6.91.36-4.84,1.09-6.9,1.76-3.81,3.1-5.26,2.97-2.57,4.88-3.36c1.91-.79,4.05-1.18,6.42-1.18ZM384.2,101.31c3.2,0,5.59-1.07,7.17-3.22,1.58-2.14,2.37-5.14,2.37-8.98s-.79-6.87-2.37-9.02c-1.58-2.15-3.97-3.23-7.17-3.23-1.62,0-3.03.28-4.22.83-1.2.56-2.19,1.35-2.99,2.4s-1.4,2.33-1.79,3.86c-.4,1.53-.59,3.25-.59,5.17s.2,3.64.59,5.15c.39,1.51.99,2.79,1.79,3.82.8,1.03,1.8,1.83,2.99,2.38,1.19.55,2.6.83,4.22.83Z"/>
  <path class="st1" d="M412.77,100.1h19.84v5.22h-26.05v-45.86h6.21v40.64Z"/>
  <path class="st1" d="M463.37,105.31h-2.53c-.55,0-1-.08-1.34-.26-.34-.17-.57-.53-.67-1.09l-.64-3.01c-.85.77-1.69,1.46-2.5,2.06-.81.61-1.66,1.12-2.56,1.54-.9.42-1.85.73-2.86.94-1.01.21-2.14.32-3.38.32s-2.44-.18-3.54-.53c-1.1-.35-2.05-.88-2.86-1.59-.81-.71-1.46-1.6-1.94-2.68-.48-1.08-.72-2.36-.72-3.84,0-1.28.35-2.52,1.06-3.71.7-1.19,1.84-2.24,3.41-3.16,1.57-.92,3.62-1.67,6.16-2.26,2.54-.59,5.64-.88,9.31-.88v-2.54c0-2.53-.54-4.45-1.62-5.75s-2.67-1.95-4.78-1.95c-1.39,0-2.56.18-3.5.53s-1.77.75-2.46,1.18c-.69.44-1.29.83-1.79,1.18-.5.35-1,.53-1.49.53-.38,0-.72-.1-1.01-.3-.29-.2-.52-.45-.69-.75l-1.02-1.82c1.79-1.73,3.72-3.02,5.79-3.87,2.07-.85,4.36-1.28,6.88-1.28,1.81,0,3.42.3,4.83.9,1.41.6,2.59,1.43,3.55,2.5.96,1.07,1.68,2.36,2.18,3.87.49,1.52.74,3.18.74,4.99v20.74ZM448.59,101.82c1,0,1.92-.1,2.75-.3s1.62-.49,2.35-.86c.74-.37,1.44-.83,2.11-1.36.67-.53,1.33-1.14,1.97-1.82v-6.69c-2.62,0-4.85.17-6.69.5-1.83.33-3.33.77-4.48,1.3s-1.99,1.17-2.51,1.9c-.52.73-.78,1.54-.78,2.45s.14,1.6.42,2.22c.28.62.65,1.13,1.12,1.53.47.4,1.02.69,1.66.87.64.18,1.33.27,2.08.27Z"/>
  <path class="st1" d="M471.2,105.31v-47.14h5.73v19.39c1.34-1.56,2.88-2.81,4.62-3.76,1.74-.95,3.73-1.42,5.97-1.42,1.88,0,3.57.35,5.09,1.06,1.51.7,2.8,1.75,3.87,3.15,1.07,1.4,1.89,3.13,2.46,5.18.58,2.06.86,4.43.86,7.12,0,2.39-.32,4.61-.96,6.67-.64,2.06-1.56,3.84-2.77,5.34-1.21,1.5-2.68,2.69-4.42,3.55-1.74.86-3.7,1.3-5.87,1.3s-3.87-.41-5.33-1.22c-1.46-.81-2.74-1.94-3.82-3.39l-.29,2.94c-.17.81-.66,1.22-1.47,1.22h-3.68ZM485.67,76.93c-1.86,0-3.48.43-4.88,1.28-1.4.85-2.68,2.06-3.86,3.62v15.68c1.02,1.41,2.16,2.4,3.41,2.98s2.64.86,4.18.86c3.03,0,5.35-1.08,6.98-3.23,1.62-2.15,2.43-5.23,2.43-9.22,0-2.11-.19-3.92-.56-5.44-.37-1.51-.91-2.76-1.62-3.73-.7-.97-1.57-1.68-2.59-2.13-1.02-.45-2.19-.67-3.49-.67Z"/>
</svg>